<svg xmlns="http://www.w3.org/2000/svg" viewBox="0 0 64 64" id="sparkle-large" aria-hidden="true" role="none" data-supported-dps="64x64" width="64" height="64">
  <circle cx="33" cy="7" r="3" fill="#e7a33e"/>
  <circle cx="39" cy="39" r="3" fill="#e7a33e"/>
  <circle cx="9" cy="37" r="3" fill="#e7a33e"/>
  <path d="M31.71 44.22c-1.33 4.57-4.92 8.14-9.49 9.49a.3.3 0 000 .58c4.57 1.33 8.14 4.92 9.49 9.49.09.3.49.3.58 0 1.33-4.57 4.92-8.14 9.49-9.49a.3.3 0 000-.58c-4.57-1.33-8.14-4.92-9.49-9.49a.3.3 0 00-.58 0z" fill="#9db3c8"/>
  <path d="M53.71 22.22c-1.33 4.57-4.92 8.14-9.49 9.49a.3.3 0 000 .58c4.57 1.33 8.14 4.92 9.49 9.49.09.3.49.3.58 0 1.33-4.57 4.92-8.14 9.49-9.49a.3.3 0 000-.58c-4.57-1.33-8.14-4.92-9.49-9.49a.3.3 0 00-.58 0z" fill="#c0d1e2"/>
  <path d="M20.39.47A29.311 29.311 0 01.47 20.39a.63.63 0 000 1.22c9.6 2.8 17.12 10.32 19.92 19.92a.63.63 0 001.22 0c2.8-9.6 10.32-17.12 19.92-19.92a.63.63 0 000-1.22A29.311 29.311 0 0121.61.47a.63.63 0 00-1.22 0z" fill="#788fa5"/>
</svg>
